# Low-poly tree trunk and branches
v -0.10000 0.00000 0.00000
v -0.07071 0.00000 0.07071
v -0.00000 0.00000 0.10000
v 0.07071 0.00000 0.07071
v 0.10000 0.00000 0.00000
v 0.07071 0.00000 -0.07071
v 0.00000 0.00000 -0.10000
v -0.07071 0.00000 -0.07071
v -0.09033 0.20000 0.00000
v -0.06388 0.20000 0.06388
v -0.00000 0.20000 0.09033
v 0.06388 0.20000 0.06388
v 0.09033 0.20000 0.00000
v 0.06388 0.20000 -0.06388
v 0.00000 0.20000 -0.09033
v -0.06388 0.20000 -0.06388
v -0.08067 0.40000 0.00000
v -0.05704 0.40000 0.05704
v -0.00000 0.40000 0.08067
v 0.05704 0.40000 0.05704
v 0.08067 0.40000 0.00000
v 0.05704 0.40000 -0.05704
v 0.00000 0.40000 -0.08067
v -0.05704 0.40000 -0.05704
v -0.07100 0.60000 0.00000
v -0.05020 0.60000 0.05020
v -0.00000 0.60000 0.07100
v 0.05020 0.60000 0.05020
v 0.07100 0.60000 0.00000
v 0.05020 0.60000 -0.05020
v 0.00000 0.60000 -0.07100
v -0.05020 0.60000 -0.05020
v -0.06133 0.80000 0.00000
v -0.04337 0.80000 0.04337
v -0.00000 0.80000 0.06133
v 0.04337 0.80000 0.04337
v 0.06133 0.80000 0.00000
v 0.04337 0.80000 -0.04337
v 0.00000 0.80000 -0.06133
v -0.04337 0.80000 -0.04337
v -0.05167 1.00000 0.00000
v -0.03653 1.00000 0.03653
v -0.00000 1.00000 0.05167
v 0.03653 1.00000 0.03653
v 0.05167 1.00000 0.00000
v 0.03653 1.00000 -0.03653
v 0.00000 1.00000 -0.05167
v -0.03653 1.00000 -0.03653
v -0.04200 1.20000 0.00000
v -0.02970 1.20000 0.02970
v -0.00000 1.20000 0.04200
v 0.02970 1.20000 0.02970
v 0.04200 1.20000 0.00000
v 0.02970 1.20000 -0.02970
v 0.00000 1.20000 -0.04200
v -0.02970 1.20000 -0.02970
v 0.00674 0.58000 -0.03536
v -0.01698 0.60330 -0.02156
v -0.02371 0.60330 0.01381
v -0.00674 0.58000 0.03536
v 0.01698 0.55670 0.02156
v 0.02371 0.55670 -0.01381
v 0.14543 0.70667 -0.00182
v 0.12632 0.72544 0.00930
v 0.12090 0.72544 0.03779
v 0.13457 0.70667 0.05515
v 0.15368 0.68789 0.04403
v 0.15910 0.68789 0.01554
v 0.28412 0.83333 0.03172
v 0.26962 0.84757 0.04016
v 0.26551 0.84757 0.06177
v 0.27588 0.83333 0.07494
v 0.29038 0.81909 0.06651
v 0.29449 0.81909 0.04490
v 0.42281 0.96000 0.06526
v 0.41293 0.96971 0.07102
v 0.41012 0.96971 0.08575
v 0.41719 0.96000 0.09474
v 0.42707 0.95029 0.08898
v 0.42988 0.95029 0.07425
v -0.00636 0.70000 0.03340
v 0.01514 0.72278 0.02019
v 0.02150 0.72278 -0.01321
v 0.00636 0.70000 -0.03340
v -0.01514 0.67722 -0.02019
v -0.02150 0.67722 0.01321
v -0.14511 0.81667 0.00018
v -0.12783 0.83498 -0.01044
v -0.12271 0.83498 -0.03729
v -0.13489 0.81667 -0.05352
v -0.15217 0.79835 -0.04290
v -0.15729 0.79835 -0.01605
v -0.28387 0.93333 -0.03303
v -0.27080 0.94718 -0.04106
v -0.26693 0.94718 -0.06136
v -0.27613 0.93333 -0.07363
v -0.28920 0.91948 -0.06561
v -0.29307 0.91948 -0.04530
v -0.42262 1.05000 -0.06625
v -0.41377 1.05938 -0.07169
v -0.41115 1.05938 -0.08544
v -0.41738 1.05000 -0.09375
v -0.42623 1.04062 -0.08831
v -0.42885 1.04062 -0.07456
v -0.02942 0.84000 -0.00588
v -0.01818 0.85901 0.01442
v 0.01124 0.85901 0.02031
v 0.02942 0.84000 0.00588
v 0.01818 0.82099 -0.01442
v -0.01124 0.82099 -0.02031
v 0.00281 0.96667 -0.13811
v 0.01192 0.98209 -0.12163
v 0.03578 0.98209 -0.11686
v 0.05053 0.96667 -0.12856
v 0.04141 0.95125 -0.14503
v 0.01755 0.95125 -0.14980
v 0.03503 1.09333 -0.27033
v 0.04202 1.10516 -0.25769
v 0.06032 1.10516 -0.25403
v 0.07164 1.09333 -0.26301
v 0.06465 1.08150 -0.27564
v 0.04634 1.08150 -0.27930
v 0.06725 1.22000 -0.40255
v 0.07212 1.22824 -0.39375
v 0.08487 1.22824 -0.39120
v 0.09275 1.22000 -0.39745
v 0.08788 1.21176 -0.40625
v 0.07513 1.21176 -0.40880
v 0.02769 0.78000 0.00415
v 0.01631 0.79767 -0.01434
v -0.01138 0.79767 -0.01850
v -0.02769 0.78000 -0.00415
v -0.01631 0.76233 0.01434
v 0.01138 0.76233 0.01850
v 0.00242 0.90667 0.13670
v -0.00680 0.92097 0.12172
v -0.02921 0.92097 0.11836
v -0.04242 0.90667 0.12997
v -0.03320 0.89236 0.14494
v -0.01079 0.89236 0.14831
v -0.02286 1.03333 0.26924
v -0.02990 1.04427 0.25779
v -0.04705 1.04427 0.25522
v -0.05714 1.03333 0.26410
v -0.05010 1.02239 0.27555
v -0.03295 1.02239 0.27812
v -0.04813 1.16000 0.40178
v -0.05301 1.16757 0.39385
v -0.06488 1.16757 0.39207
v -0.07187 1.16000 0.39822
v -0.06699 1.15243 0.40615
v -0.05512 1.15243 0.40793
vn -1.00000 0.00000 0.00000
vn -0.70711 0.00000 0.70711
vn -0.00000 0.00000 1.00000
vn 0.70711 -0.00000 0.70711
vn 1.00000 -0.00000 0.00000
vn 0.70711 0.00000 -0.70711
vn 0.00000 0.00000 -1.00000
vn -0.70711 0.00000 -0.70711
vn -1.00000 0.00000 0.00000
vn -0.70711 0.00000 0.70711
vn -0.00000 0.00000 1.00000
vn 0.70711 -0.00000 0.70711
vn 1.00000 -0.00000 0.00000
vn 0.70711 0.00000 -0.70711
vn 0.00000 0.00000 -1.00000
vn -0.70711 0.00000 -0.70711
vn -1.00000 0.00000 0.00000
vn -0.70711 0.00000 0.70711
vn -0.00000 0.00000 1.00000
vn 0.70711 -0.00000 0.70711
vn 1.00000 -0.00000 0.00000
vn 0.70711 0.00000 -0.70711
vn 0.00000 0.00000 -1.00000
vn -0.70711 0.00000 -0.70711
vn -1.00000 0.00000 0.00000
vn -0.70711 0.00000 0.70711
vn -0.00000 0.00000 1.00000
vn 0.70711 -0.00000 0.70711
vn 1.00000 -0.00000 0.00000
vn 0.70711 0.00000 -0.70711
vn 0.00000 0.00000 -1.00000
vn -0.70711 0.00000 -0.70711
vn -1.00000 0.00000 0.00000
vn -0.70711 0.00000 0.70711
vn -0.00000 0.00000 1.00000
vn 0.70711 -0.00000 0.70711
vn 1.00000 -0.00000 0.00000
vn 0.70711 0.00000 -0.70711
vn 0.00000 0.00000 -1.00000
vn -0.70711 0.00000 -0.70711
vn -1.00000 0.00000 0.00000
vn -0.70711 0.00000 0.70711
vn -0.00000 0.00000 1.00000
vn 0.70711 -0.00000 0.70711
vn 1.00000 -0.00000 0.00000
vn 0.70711 0.00000 -0.70711
vn 0.00000 0.00000 -1.00000
vn -0.70711 0.00000 -0.70711
vn -1.00000 0.00000 0.00000
vn -0.70711 0.00000 0.70711
vn -0.00000 0.00000 1.00000
vn 0.70711 -0.00000 0.70711
vn 1.00000 -0.00000 0.00000
vn 0.70711 0.00000 -0.70711
vn 0.00000 0.00000 -1.00000
vn -0.70711 0.00000 -0.70711
vn 0.18711 0.00000 -0.98234
vn -0.47160 0.64731 -0.59882
vn -0.65871 0.64731 0.38352
vn -0.18711 0.00000 0.98234
vn 0.47160 -0.64731 0.59882
vn 0.65871 -0.64731 -0.38352
vn 0.18711 0.00000 -0.98234
vn -0.47160 0.64731 -0.59882
vn -0.65871 0.64731 0.38352
vn -0.18711 0.00000 0.98234
vn 0.47160 -0.64731 0.59882
vn 0.65871 -0.64731 -0.38352
vn 0.18711 0.00000 -0.98234
vn -0.47160 0.64731 -0.59882
vn -0.65871 0.64731 0.38352
vn -0.18711 0.00000 0.98234
vn 0.47160 -0.64731 0.59882
vn 0.65871 -0.64731 -0.38352
vn 0.18711 0.00000 -0.98234
vn -0.47160 0.64731 -0.59882
vn -0.65871 0.64731 0.38352
vn -0.18711 0.00000 0.98234
vn 0.47160 -0.64731 0.59882
vn 0.65871 -0.64731 -0.38352
vn -0.18711 0.00000 0.98234
vn 0.44533 0.67012 0.59381
vn 0.63244 0.67012 -0.38852
vn 0.18711 0.00000 -0.98234
vn -0.44533 -0.67012 -0.59381
vn -0.63244 -0.67012 0.38852
vn -0.18711 0.00000 0.98234
vn 0.44533 0.67012 0.59381
vn 0.63244 0.67012 -0.38852
vn 0.18711 0.00000 -0.98234
vn -0.44533 -0.67012 -0.59381
vn -0.63244 -0.67012 0.38852
vn -0.18711 0.00000 0.98234
vn 0.44533 0.67012 0.59381
vn 0.63244 0.67012 -0.38852
vn 0.18711 0.00000 -0.98234
vn -0.44533 -0.67012 -0.59381
vn -0.63244 -0.67012 0.38852
vn -0.18711 0.00000 0.98234
vn 0.44533 0.67012 0.59381
vn 0.63244 0.67012 -0.38852
vn 0.18711 0.00000 -0.98234
vn -0.44533 -0.67012 -0.59381
vn -0.63244 -0.67012 0.38852
vn -0.98058 0.00000 -0.19612
vn -0.60606 0.63368 0.48078
vn 0.37452 0.63368 0.67690
vn 0.98058 0.00000 0.19612
vn 0.60606 -0.63368 -0.48078
vn -0.37452 -0.63368 -0.67690
vn -0.98058 0.00000 -0.19612
vn -0.60606 0.63368 0.48078
vn 0.37452 0.63368 0.67690
vn 0.98058 0.00000 0.19612
vn 0.60606 -0.63368 -0.48078
vn -0.37452 -0.63368 -0.67690
vn -0.98058 0.00000 -0.19612
vn -0.60606 0.63368 0.48078
vn 0.37452 0.63368 0.67690
vn 0.98058 0.00000 0.19612
vn 0.60606 -0.63368 -0.48078
vn -0.37452 -0.63368 -0.67690
vn -0.98058 0.00000 -0.19612
vn -0.60606 0.63368 0.48078
vn 0.37452 0.63368 0.67690
vn 0.98058 0.00000 0.19612
vn 0.60606 -0.63368 -0.48078
vn -0.37452 -0.63368 -0.67690
vn 0.98894 0.00000 0.14834
vn 0.58243 0.63117 -0.51225
vn -0.40651 0.63117 -0.66059
vn -0.98894 0.00000 -0.14834
vn -0.58243 -0.63117 0.51225
vn 0.40651 -0.63117 0.66059
vn 0.98894 0.00000 0.14834
vn 0.58243 0.63117 -0.51225
vn -0.40651 0.63117 -0.66059
vn -0.98894 0.00000 -0.14834
vn -0.58243 -0.63117 0.51225
vn 0.40651 -0.63117 0.66059
vn 0.98894 0.00000 0.14834
vn 0.58243 0.63117 -0.51225
vn -0.40651 0.63117 -0.66059
vn -0.98894 0.00000 -0.14834
vn -0.58243 -0.63117 0.51225
vn 0.40651 -0.63117 0.66059
vn 0.98894 0.00000 0.14834
vn 0.58243 0.63117 -0.51225
vn -0.40651 0.63117 -0.66059
vn -0.98894 0.00000 -0.14834
vn -0.58243 -0.63117 0.51225
vn 0.40651 -0.63117 0.66059
f 1//1 2//2 10//10
f 1//1 10//10 9//9
f 2//2 3//3 11//11
f 2//2 11//11 10//10
f 3//3 4//4 12//12
f 3//3 12//12 11//11
f 4//4 5//5 13//13
f 4//4 13//13 12//12
f 5//5 6//6 14//14
f 5//5 14//14 13//13
f 6//6 7//7 15//15
f 6//6 15//15 14//14
f 7//7 8//8 16//16
f 7//7 16//16 15//15
f 8//8 1//1 9//9
f 8//8 9//9 16//16
f 9//9 10//10 18//18
f 9//9 18//18 17//17
f 10//10 11//11 19//19
f 10//10 19//19 18//18
f 11//11 12//12 20//20
f 11//11 20//20 19//19
f 12//12 13//13 21//21
f 12//12 21//21 20//20
f 13//13 14//14 22//22
f 13//13 22//22 21//21
f 14//14 15//15 23//23
f 14//14 23//23 22//22
f 15//15 16//16 24//24
f 15//15 24//24 23//23
f 16//16 9//9 17//17
f 16//16 17//17 24//24
f 17//17 18//18 26//26
f 17//17 26//26 25//25
f 18//18 19//19 27//27
f 18//18 27//27 26//26
f 19//19 20//20 28//28
f 19//19 28//28 27//27
f 20//20 21//21 29//29
f 20//20 29//29 28//28
f 21//21 22//22 30//30
f 21//21 30//30 29//29
f 22//22 23//23 31//31
f 22//22 31//31 30//30
f 23//23 24//24 32//32
f 23//23 32//32 31//31
f 24//24 17//17 25//25
f 24//24 25//25 32//32
f 25//25 26//26 34//34
f 25//25 34//34 33//33
f 26//26 27//27 35//35
f 26//26 35//35 34//34
f 27//27 28//28 36//36
f 27//27 36//36 35//35
f 28//28 29//29 37//37
f 28//28 37//37 36//36
f 29//29 30//30 38//38
f 29//29 38//38 37//37
f 30//30 31//31 39//39
f 30//30 39//39 38//38
f 31//31 32//32 40//40
f 31//31 40//40 39//39
f 32//32 25//25 33//33
f 32//32 33//33 40//40
f 33//33 34//34 42//42
f 33//33 42//42 41//41
f 34//34 35//35 43//43
f 34//34 43//43 42//42
f 35//35 36//36 44//44
f 35//35 44//44 43//43
f 36//36 37//37 45//45
f 36//36 45//45 44//44
f 37//37 38//38 46//46
f 37//37 46//46 45//45
f 38//38 39//39 47//47
f 38//38 47//47 46//46
f 39//39 40//40 48//48
f 39//39 48//48 47//47
f 40//40 33//33 41//41
f 40//40 41//41 48//48
f 41//41 42//42 50//50
f 41//41 50//50 49//49
f 42//42 43//43 51//51
f 42//42 51//51 50//50
f 43//43 44//44 52//52
f 43//43 52//52 51//51
f 44//44 45//45 53//53
f 44//44 53//53 52//52
f 45//45 46//46 54//54
f 45//45 54//54 53//53
f 46//46 47//47 55//55
f 46//46 55//55 54//54
f 47//47 48//48 56//56
f 47//47 56//56 55//55
f 48//48 41//41 49//49
f 48//48 49//49 56//56
f 57//57 58//58 64//64
f 57//57 64//64 63//63
f 58//58 59//59 65//65
f 58//58 65//65 64//64
f 59//59 60//60 66//66
f 59//59 66//66 65//65
f 60//60 61//61 67//67
f 60//60 67//67 66//66
f 61//61 62//62 68//68
f 61//61 68//68 67//67
f 62//62 57//57 63//63
f 62//62 63//63 68//68
f 63//63 64//64 70//70
f 63//63 70//70 69//69
f 64//64 65//65 71//71
f 64//64 71//71 70//70
f 65//65 66//66 72//72
f 65//65 72//72 71//71
f 66//66 67//67 73//73
f 66//66 73//73 72//72
f 67//67 68//68 74//74
f 67//67 74//74 73//73
f 68//68 63//63 69//69
f 68//68 69//69 74//74
f 69//69 70//70 76//76
f 69//69 76//76 75//75
f 70//70 71//71 77//77
f 70//70 77//77 76//76
f 71//71 72//72 78//78
f 71//71 78//78 77//77
f 72//72 73//73 79//79
f 72//72 79//79 78//78
f 73//73 74//74 80//80
f 73//73 80//80 79//79
f 74//74 69//69 75//75
f 74//74 75//75 80//80
f 81//81 82//82 88//88
f 81//81 88//88 87//87
f 82//82 83//83 89//89
f 82//82 89//89 88//88
f 83//83 84//84 90//90
f 83//83 90//90 89//89
f 84//84 85//85 91//91
f 84//84 91//91 90//90
f 85//85 86//86 92//92
f 85//85 92//92 91//91
f 86//86 81//81 87//87
f 86//86 87//87 92//92
f 87//87 88//88 94//94
f 87//87 94//94 93//93
f 88//88 89//89 95//95
f 88//88 95//95 94//94
f 89//89 90//90 96//96
f 89//89 96//96 95//95
f 90//90 91//91 97//97
f 90//90 97//97 96//96
f 91//91 92//92 98//98
f 91//91 98//98 97//97
f 92//92 87//87 93//93
f 92//92 93//93 98//98
f 93//93 94//94 100//100
f 93//93 100//100 99//99
f 94//94 95//95 101//101
f 94//94 101//101 100//100
f 95//95 96//96 102//102
f 95//95 102//102 101//101
f 96//96 97//97 103//103
f 96//96 103//103 102//102
f 97//97 98//98 104//104
f 97//97 104//104 103//103
f 98//98 93//93 99//99
f 98//98 99//99 104//104
f 105//105 106//106 112//112
f 105//105 112//112 111//111
f 106//106 107//107 113//113
f 106//106 113//113 112//112
f 107//107 108//108 114//114
f 107//107 114//114 113//113
f 108//108 109//109 115//115
f 108//108 115//115 114//114
f 109//109 110//110 116//116
f 109//109 116//116 115//115
f 110//110 105//105 111//111
f 110//110 111//111 116//116
f 111//111 112//112 118//118
f 111//111 118//118 117//117
f 112//112 113//113 119//119
f 112//112 119//119 118//118
f 113//113 114//114 120//120
f 113//113 120//120 119//119
f 114//114 115//115 121//121
f 114//114 121//121 120//120
f 115//115 116//116 122//122
f 115//115 122//122 121//121
f 116//116 111//111 117//117
f 116//116 117//117 122//122
f 117//117 118//118 124//124
f 117//117 124//124 123//123
f 118//118 119//119 125//125
f 118//118 125//125 124//124
f 119//119 120//120 126//126
f 119//119 126//126 125//125
f 120//120 121//121 127//127
f 120//120 127//127 126//126
f 121//121 122//122 128//128
f 121//121 128//128 127//127
f 122//122 117//117 123//123
f 122//122 123//123 128//128
f 129//129 130//130 136//136
f 129//129 136//136 135//135
f 130//130 131//131 137//137
f 130//130 137//137 136//136
f 131//131 132//132 138//138
f 131//131 138//138 137//137
f 132//132 133//133 139//139
f 132//132 139//139 138//138
f 133//133 134//134 140//140
f 133//133 140//140 139//139
f 134//134 129//129 135//135
f 134//134 135//135 140//140
f 135//135 136//136 142//142
f 135//135 142//142 141//141
f 136//136 137//137 143//143
f 136//136 143//143 142//142
f 137//137 138//138 144//144
f 137//137 144//144 143//143
f 138//138 139//139 145//145
f 138//138 145//145 144//144
f 139//139 140//140 146//146
f 139//139 146//146 145//145
f 140//140 135//135 141//141
f 140//140 141//141 146//146
f 141//141 142//142 148//148
f 141//141 148//148 147//147
f 142//142 143//143 149//149
f 142//142 149//149 148//148
f 143//143 144//144 150//150
f 143//143 150//150 149//149
f 144//144 145//145 151//151
f 144//144 151//151 150//150
f 145//145 146//146 152//152
f 145//145 152//152 151//151
f 146//146 141//141 147//147
f 146//146 147//147 152//152
