# Low-poly tree crown
v 0.00000 1.49029 0.34026
v 0.00000 1.06971 0.34026
v 0.00000 1.49029 -0.34026
v 0.00000 1.06971 -0.34026
v 0.21029 1.62026 0.00000
v -0.21029 1.62026 0.00000
v 0.21029 0.93974 0.00000
v -0.21029 0.93974 0.00000
v 0.34026 1.28000 0.21029
v 0.34026 1.28000 -0.21029
v -0.34026 1.28000 0.21029
v -0.34026 1.28000 -0.21029
v 0.42000 1.21823 0.37221
v 0.42000 0.88177 0.37221
v 0.42000 1.21823 -0.17221
v 0.42000 0.88177 -0.17221
v 0.58823 1.32221 0.10000
v 0.25177 1.32221 0.10000
v 0.58823 0.77779 0.10000
v 0.25177 0.77779 0.10000
v 0.69221 1.05000 0.26823
v 0.69221 1.05000 -0.06823
v 0.14779 1.05000 0.26823
v 0.14779 1.05000 -0.06823
v -0.42000 1.28823 0.19221
v -0.42000 0.95177 0.19221
v -0.42000 1.28823 -0.35221
v -0.42000 0.95177 -0.35221
v -0.25177 1.39221 -0.08000
v -0.58823 1.39221 -0.08000
v -0.25177 0.84779 -0.08000
v -0.58823 0.84779 -0.08000
v -0.14779 1.12000 0.08823
v -0.14779 1.12000 -0.24823
v -0.69221 1.12000 0.08823
v -0.69221 1.12000 -0.24823
v 0.08000 1.43772 -0.14480
v 0.08000 1.12228 -0.14480
v 0.08000 1.43772 -0.65520
v 0.08000 1.12228 -0.65520
v 0.23772 1.53520 -0.40000
v -0.07772 1.53520 -0.40000
v 0.23772 1.02480 -0.40000
v -0.07772 1.02480 -0.40000
v 0.33520 1.28000 -0.24228
v 0.33520 1.28000 -0.55772
v -0.17520 1.28000 -0.24228
v -0.17520 1.28000 -0.55772
v -0.06000 1.36720 0.63818
v -0.06000 1.07280 0.63818
v -0.06000 1.36720 0.16182
v -0.06000 1.07280 0.16182
v 0.08720 1.45818 0.40000
v -0.20720 1.45818 0.40000
v 0.08720 0.98182 0.40000
v -0.20720 0.98182 0.40000
v 0.17818 1.22000 0.54720
v 0.17818 1.22000 0.25280
v -0.29818 1.22000 0.54720
v -0.29818 1.22000 0.25280
v 0.16000 1.61669 0.24117
v 0.16000 1.34331 0.24117
v 0.16000 1.61669 -0.20117
v 0.16000 1.34331 -0.20117
v 0.29669 1.70117 0.02000
v 0.02331 1.70117 0.02000
v 0.29669 1.25883 0.02000
v 0.02331 1.25883 0.02000
v 0.38117 1.48000 0.15669
v 0.38117 1.48000 -0.11669
v -0.06117 1.48000 0.15669
v -0.06117 1.48000 -0.11669
v -0.18000 1.09566 0.34714
v -0.18000 0.86434 0.34714
v -0.18000 1.09566 -0.02714
v -0.18000 0.86434 -0.02714
v -0.06434 1.16714 0.16000
v -0.29566 1.16714 0.16000
v -0.06434 0.79286 0.16000
v -0.29566 0.79286 0.16000
v 0.00714 0.98000 0.27566
v 0.00714 0.98000 0.04434
v -0.36714 0.98000 0.27566
v -0.36714 0.98000 0.04434
vn 0.00000 0.52573 0.85065
vn 0.00000 -0.52573 0.85065
vn 0.00000 0.52573 -0.85065
vn 0.00000 -0.52573 -0.85065
vn 0.52573 0.85065 0.00000
vn -0.52573 0.85065 0.00000
vn 0.52573 -0.85065 0.00000
vn -0.52573 -0.85065 0.00000
vn 0.85065 0.00000 0.52573
vn 0.85065 0.00000 -0.52573
vn -0.85065 0.00000 0.52573
vn -0.85065 0.00000 -0.52573
vn 0.00000 0.52573 0.85065
vn 0.00000 -0.52573 0.85065
vn 0.00000 0.52573 -0.85065
vn 0.00000 -0.52573 -0.85065
vn 0.52573 0.85065 0.00000
vn -0.52573 0.85065 0.00000
vn 0.52573 -0.85065 0.00000
vn -0.52573 -0.85065 0.00000
vn 0.85065 0.00000 0.52573
vn 0.85065 0.00000 -0.52573
vn -0.85065 0.00000 0.52573
vn -0.85065 0.00000 -0.52573
vn 0.00000 0.52573 0.85065
vn 0.00000 -0.52573 0.85065
vn 0.00000 0.52573 -0.85065
vn 0.00000 -0.52573 -0.85065
vn 0.52573 0.85065 0.00000
vn -0.52573 0.85065 0.00000
vn 0.52573 -0.85065 0.00000
vn -0.52573 -0.85065 0.00000
vn 0.85065 0.00000 0.52573
vn 0.85065 0.00000 -0.52573
vn -0.85065 0.00000 0.52573
vn -0.85065 0.00000 -0.52573
vn 0.00000 0.52573 0.85065
vn 0.00000 -0.52573 0.85065
vn 0.00000 0.52573 -0.85065
vn 0.00000 -0.52573 -0.85065
vn 0.52573 0.85065 0.00000
vn -0.52573 0.85065 0.00000
vn 0.52573 -0.85065 0.00000
vn -0.52573 -0.85065 0.00000
vn 0.85065 0.00000 0.52573
vn 0.85065 0.00000 -0.52573
vn -0.85065 0.00000 0.52573
vn -0.85065 0.00000 -0.52573
vn 0.00000 0.52573 0.85065
vn 0.00000 -0.52573 0.85065
vn 0.00000 0.52573 -0.85065
vn 0.00000 -0.52573 -0.85065
vn 0.52573 0.85065 0.00000
vn -0.52573 0.85065 0.00000
vn 0.52573 -0.85065 0.00000
vn -0.52573 -0.85065 0.00000
vn 0.85065 0.00000 0.52573
vn 0.85065 0.00000 -0.52573
vn -0.85065 0.00000 0.52573
vn -0.85065 0.00000 -0.52573
vn 0.00000 0.52573 0.85065
vn 0.00000 -0.52573 0.85065
vn 0.00000 0.52573 -0.85065
vn 0.00000 -0.52573 -0.85065
vn 0.52573 0.85065 0.00000
vn -0.52573 0.85065 0.00000
vn 0.52573 -0.85065 0.00000
vn -0.52573 -0.85065 0.00000
vn 0.85065 0.00000 0.52573
vn 0.85065 0.00000 -0.52573
vn -0.85065 0.00000 0.52573
vn -0.85065 0.00000 -0.52573
vn 0.00000 0.52573 0.85065
vn 0.00000 -0.52573 0.85065
vn 0.00000 0.52573 -0.85065
vn 0.00000 -0.52573 -0.85065
vn 0.52573 0.85065 0.00000
vn -0.52573 0.85065 0.00000
vn 0.52573 -0.85065 0.00000
vn -0.52573 -0.85065 0.00000
vn 0.85065 0.00000 0.52573
vn 0.85065 0.00000 -0.52573
vn -0.85065 0.00000 0.52573
vn -0.85065 0.00000 -0.52573
f 1//1 6//6 12//12
f 1//1 6//6 2//2
f 1//1 8//8 2//2
f 1//1 11//11 8//8
f 1//1 12//12 11//11
f 2//2 10//10 6//6
f 6//6 5//5 12//12
f 12//12 11//11 3//3
f 11//11 8//8 7//7
f 8//8 9//9 2//2
f 4//4 5//5 10//10
f 4//4 3//3 5//5
f 4//4 3//3 7//7
f 4//4 9//9 7//7
f 4//4 10//10 9//9
f 5//5 10//10 6//6
f 3//3 12//12 5//5
f 7//7 11//11 3//3
f 9//9 8//8 7//7
f 10//10 9//9 2//2
f 13//13 18//18 24//24
f 13//13 18//18 14//14
f 13//13 20//20 14//14
f 13//13 23//23 20//20
f 13//13 24//24 23//23
f 14//14 22//22 18//18
f 18//18 17//17 24//24
f 24//24 23//23 15//15
f 23//23 20//20 19//19
f 20//20 21//21 14//14
f 16//16 17//17 22//22
f 16//16 15//15 17//17
f 16//16 15//15 19//19
f 16//16 21//21 19//19
f 16//16 22//22 21//21
f 17//17 22//22 18//18
f 15//15 24//24 17//17
f 19//19 23//23 15//15
f 21//21 20//20 19//19
f 22//22 21//21 14//14
f 25//25 30//30 36//36
f 25//25 30//30 26//26
f 25//25 32//32 26//26
f 25//25 35//35 32//32
f 25//25 36//36 35//35
f 26//26 34//34 30//30
f 30//30 29//29 36//36
f 36//36 35//35 27//27
f 35//35 32//32 31//31
f 32//32 33//33 26//26
f 28//28 29//29 34//34
f 28//28 27//27 29//29
f 28//28 27//27 31//31
f 28//28 33//33 31//31
f 28//28 34//34 33//33
f 29//29 34//34 30//30
f 27//27 36//36 29//29
f 31//31 35//35 27//27
f 33//33 32//32 31//31
f 34//34 33//33 26//26
f 37//37 42//42 48//48
f 37//37 42//42 38//38
f 37//37 44//44 38//38
f 37//37 47//47 44//44
f 37//37 48//48 47//47
f 38//38 46//46 42//42
f 42//42 41//41 48//48
f 48//48 47//47 39//39
f 47//47 44//44 43//43
f 44//44 45//45 38//38
f 40//40 41//41 46//46
f 40//40 39//39 41//41
f 40//40 39//39 43//43
f 40//40 45//45 43//43
f 40//40 46//46 45//45
f 41//41 46//46 42//42
f 39//39 48//48 41//41
f 43//43 47//47 39//39
f 45//45 44//44 43//43
f 46//46 45//45 38//38
f 49//49 54//54 60//60
f 49//49 54//54 50//50
f 49//49 56//56 50//50
f 49//49 59//59 56//56
f 49//49 60//60 59//59
f 50//50 58//58 54//54
f 54//54 53//53 60//60
f 60//60 59//59 51//51
f 59//59 56//56 55//55
f 56//56 57//57 50//50
f 52//52 53//53 58//58
f 52//52 51//51 53//53
f 52//52 51//51 55//55
f 52//52 57//57 55//55
f 52//52 58//58 57//57
f 53//53 58//58 54//54
f 51//51 60//60 53//53
f 55//55 59//59 51//51
f 57//57 56//56 55//55
f 58//58 57//57 50//50
f 61//61 66//66 72//72
f 61//61 66//66 62//62
f 61//61 68//68 62//62
f 61//61 71//71 68//68
f 61//61 72//72 71//71
f 62//62 70//70 66//66
f 66//66 65//65 72//72
f 72//72 71//71 63//63
f 71//71 68//68 67//67
f 68//68 69//69 62//62
f 64//64 65//65 70//70
f 64//64 63//63 65//65
f 64//64 63//63 67//67
f 64//64 69//69 67//67
f 64//64 70//70 69//69
f 65//65 70//70 66//66
f 63//63 72//72 65//65
f 67//67 71//71 63//63
f 69//69 68//68 67//67
f 70//70 69//69 62//62
f 73//73 78//78 84//84
f 73//73 78//78 74//74
f 73//73 80//80 74//74
f 73//73 83//83 80//80
f 73//73 84//84 83//83
f 74//74 82//82 78//78
f 78//78 77//77 84//84
f 84//84 83//83 75//75
f 83//83 80//80 79//79
f 80//80 81//81 74//74
f 76//76 77//77 82//82
f 76//76 75//75 77//77
f 76//76 75//75 79//79
f 76//76 81//81 79//79
f 76//76 82//82 81//81
f 77//77 82//82 78//78
f 75//75 84//84 77//77
f 79//79 83//83 75//75
f 81//81 80//80 79//79
f 82//82 81//81 74//74
